<svg width="135" height="257" viewBox="0 0 135 257" fill="none" xmlns="http://www.w3.org/2000/svg">
<g filter="url(#filter0_b_25_550)">
<path d="M67.5 244C45.2106 201.486 29.7794 172.243 6.99999 128.5L37.3725 70.75L67.5 13L97.8725 70.75L128 128.5L67.5 244Z" fill="#919191" fill-opacity="0.14"/>
</g>
<path d="M34.3289 64.4832L34.3297 64.4818L67.5018 1.07519L100.944 64.4818L100.944 64.4832L134.435 128.5L67.4998 255.925C60.4084 242.438 53.936 230.146 47.7112 218.323C32.3497 189.148 18.4957 162.835 0.564684 128.501L34.3289 64.4832Z" stroke="#F0D99F"/>
<path d="M53.6123 149.635C53.6123 149.747 53.6263 149.873 53.6543 150.013C53.6823 150.139 53.7243 150.258 53.7803 150.37C53.8503 150.482 53.9273 150.58 54.0113 150.664C54.0953 150.748 54.1933 150.79 54.3053 150.79V151H51.5753V150.79C51.6873 150.79 51.7853 150.755 51.8693 150.685C51.9533 150.601 52.0233 150.503 52.0793 150.391C52.1353 150.265 52.1773 150.139 52.2053 150.013C52.2333 149.873 52.2473 149.747 52.2473 149.635V143.965L48.7403 151.189L45.3803 144.385V149.635C45.3803 149.747 45.3943 149.873 45.4223 150.013C45.4503 150.139 45.4923 150.258 45.5483 150.37C45.6043 150.482 45.6743 150.58 45.7583 150.664C45.8423 150.748 45.9403 150.79 46.0523 150.79V151H44.0153V150.79C44.1273 150.79 44.2253 150.748 44.3093 150.664C44.3933 150.58 44.4563 150.482 44.4983 150.37C44.5543 150.258 44.5963 150.139 44.6243 150.013C44.6523 149.873 44.6663 149.747 44.6663 149.635V143.482C44.6663 143.23 44.6313 142.985 44.5613 142.747C44.5053 142.509 44.3233 142.39 44.0153 142.39V142.18H45.8843L49.0973 148.753L52.3103 142.18H54.3053V142.39C54.0953 142.39 53.9273 142.523 53.8013 142.789C53.6753 143.041 53.6123 143.272 53.6123 143.482V149.635ZM56.6545 151V150.79C56.7665 150.79 56.8645 150.748 56.9485 150.664C57.0325 150.58 57.1025 150.482 57.1585 150.37C57.2145 150.258 57.2565 150.139 57.2845 150.013C57.3125 149.873 57.3265 149.747 57.3265 149.635V143.818C57.3265 143.58 57.2915 143.356 57.2215 143.146C57.1515 142.922 56.9485 142.803 56.6125 142.789V142.6L58.7125 141.928V149.635C58.7125 149.747 58.7265 149.873 58.7545 150.013C58.7825 150.139 58.8245 150.258 58.8805 150.37C58.9365 150.482 59.0065 150.58 59.0905 150.664C59.1745 150.748 59.2725 150.79 59.3845 150.79V151H56.6545ZM56.9065 139.912C56.9065 139.632 56.9975 139.394 57.1795 139.198C57.3755 139.002 57.6135 138.904 57.8935 138.904C58.1735 138.904 58.4115 139.002 58.6075 139.198C58.8035 139.394 58.9015 139.632 58.9015 139.912C58.9015 140.192 58.8035 140.423 58.6075 140.605C58.4115 140.787 58.1735 140.878 57.8935 140.878C57.6135 140.878 57.3755 140.787 57.1795 140.605C56.9975 140.423 56.9065 140.192 56.9065 139.912ZM69.38 150.244C69.268 150.244 69.163 150.272 69.065 150.328C68.967 150.37 68.855 150.426 68.729 150.496C68.491 150.636 68.176 150.783 67.784 150.937C67.392 151.077 66.902 151.147 66.314 151.147C65.6 151.147 64.942 151.035 64.34 150.811C63.752 150.573 63.241 150.251 62.807 149.845C62.373 149.425 62.037 148.942 61.799 148.396C61.561 147.836 61.442 147.234 61.442 146.59C61.442 145.988 61.547 145.414 61.757 144.868C61.981 144.322 62.296 143.839 62.702 143.419C63.108 142.999 63.605 142.663 64.193 142.411C64.795 142.159 65.474 142.033 66.23 142.033C66.748 142.033 67.168 142.096 67.49 142.222C67.812 142.334 68.085 142.446 68.309 142.558C68.435 142.628 68.554 142.684 68.666 142.726C68.792 142.768 68.918 142.789 69.044 142.789V144.385H68.834C68.764 144.119 68.638 143.888 68.456 143.692C68.274 143.482 68.064 143.307 67.826 143.167C67.588 143.027 67.329 142.922 67.049 142.852C66.769 142.782 66.496 142.747 66.23 142.747C65.656 142.747 65.152 142.852 64.718 143.062C64.284 143.258 63.927 143.524 63.647 143.86C63.367 144.182 63.157 144.553 63.017 144.973C62.877 145.393 62.807 145.827 62.807 146.275C62.807 146.793 62.884 147.304 63.038 147.808C63.206 148.298 63.437 148.739 63.731 149.131C64.039 149.523 64.41 149.838 64.844 150.076C65.292 150.314 65.796 150.433 66.356 150.433C66.748 150.433 67.112 150.377 67.448 150.265C67.784 150.153 68.071 150.006 68.309 149.824C68.561 149.642 68.757 149.446 68.897 149.236C69.051 149.012 69.142 148.802 69.17 148.606H69.38V150.244ZM80.3115 150.307V152.848H80.1015C80.1015 152.666 80.0525 152.47 79.9545 152.26C79.8705 152.05 79.7515 151.847 79.5975 151.651C79.4435 151.469 79.2615 151.315 79.0515 151.189C78.8555 151.063 78.6455 151 78.4215 151H70.7985V150.79C70.8965 150.79 70.9805 150.755 71.0505 150.685C71.1345 150.601 71.2045 150.503 71.2605 150.391C71.3165 150.265 71.3585 150.139 71.3865 150.013C71.4145 149.887 71.4285 149.782 71.4285 149.698V143.545C71.4285 143.447 71.4145 143.328 71.3865 143.188C71.3725 143.048 71.3445 142.922 71.3025 142.81C71.2605 142.698 71.1975 142.6 71.1135 142.516C71.0295 142.432 70.9245 142.39 70.7985 142.39V142.18H73.4655V142.39C73.3395 142.39 73.2345 142.432 73.1505 142.516C73.0805 142.586 73.0175 142.684 72.9615 142.81C72.9055 142.922 72.8635 143.048 72.8355 143.188C72.8215 143.314 72.8145 143.433 72.8145 143.545V150.307H77.3925V143.545C77.3925 143.447 77.3785 143.328 77.3505 143.188C77.3365 143.048 77.3015 142.922 77.2455 142.81C77.1895 142.698 77.1195 142.6 77.0355 142.516C76.9655 142.432 76.8675 142.39 76.7415 142.39V142.18H79.4085V142.39C79.2825 142.39 79.1775 142.432 79.0935 142.516C79.0235 142.586 78.9605 142.684 78.9045 142.81C78.8625 142.922 78.8275 143.048 78.7995 143.188C78.7855 143.314 78.7785 143.433 78.7785 143.545V149.152C78.7785 149.432 78.8345 149.698 78.9465 149.95C79.0725 150.188 79.3035 150.307 79.6395 150.307H80.3115ZM85.2401 146.002C85.8841 146.002 86.4441 146.065 86.9201 146.191C87.4101 146.317 87.8091 146.492 88.1171 146.716C88.4391 146.94 88.6771 147.206 88.8311 147.514C88.9851 147.808 89.0621 148.13 89.0621 148.48C89.0621 148.83 88.9851 149.159 88.8311 149.467C88.6771 149.775 88.4321 150.041 88.0961 150.265C87.7741 150.489 87.3681 150.671 86.8781 150.811C86.3881 150.937 85.8071 151 85.1351 151H81.5441V150.79C81.6561 150.79 81.7541 150.755 81.8381 150.685C81.9221 150.601 81.9921 150.503 82.0481 150.391C82.1181 150.265 82.1671 150.139 82.1951 150.013C82.2231 149.873 82.2371 149.747 82.2371 149.635V143.482C82.2371 143.384 82.2231 143.272 82.1951 143.146C82.1671 143.02 82.1181 142.901 82.0481 142.789C81.9921 142.677 81.9221 142.586 81.8381 142.516C81.7541 142.432 81.6561 142.39 81.5441 142.39V142.18H84.2951V142.39C84.0851 142.39 83.9171 142.523 83.7911 142.789C83.6651 143.041 83.6021 143.272 83.6021 143.482V146.002H85.2401ZM85.0931 150.307C86.0171 150.307 86.6821 150.16 87.0881 149.866C87.5081 149.558 87.7181 149.18 87.7181 148.732C87.7181 148.48 87.6621 148.235 87.5501 147.997C87.4381 147.745 87.2631 147.528 87.0251 147.346C86.8011 147.15 86.5211 146.996 86.1851 146.884C85.8491 146.758 85.4641 146.695 85.0301 146.695H83.6021V150.307H85.0931Z" fill="white"/>
<path d="M51.2064 111.435H51.5214C51.638 111.435 51.778 111.377 51.9414 111.26C52.128 111.143 52.3264 111.015 52.5364 110.875C52.7697 110.712 53.038 110.525 53.3414 110.315C53.668 110.105 54.0297 109.918 54.4264 109.755C54.8464 109.568 55.313 109.417 55.8264 109.3C56.3397 109.183 56.9114 109.125 57.5414 109.125C58.3347 109.125 59.1047 109.242 59.8514 109.475C60.598 109.685 61.263 110.023 61.8464 110.49C62.4297 110.933 62.8964 111.505 63.2464 112.205C63.5964 112.905 63.7714 113.745 63.7714 114.725C63.7714 115.542 63.6314 116.288 63.3514 116.965C63.0714 117.642 62.6864 118.272 62.1964 118.855C61.7297 119.438 61.193 119.998 60.5864 120.535C60.003 121.048 59.3964 121.562 58.7664 122.075C58.1597 122.565 57.5647 123.067 56.9814 123.58C56.4214 124.093 55.908 124.63 55.4414 125.19C54.998 125.75 54.6247 126.357 54.3214 127.01C54.018 127.64 53.843 128.317 53.7964 129.04H61.0764C61.963 129.04 62.663 128.888 63.1764 128.585C63.6897 128.258 63.958 127.733 63.9814 127.01H64.2964V131H51.3464C51.3464 129.95 51.5214 128.982 51.8714 128.095C52.2214 127.185 52.6764 126.357 53.2364 125.61C53.7964 124.84 54.4147 124.128 55.0914 123.475C55.7914 122.822 56.4797 122.192 57.1564 121.585C57.7164 121.095 58.253 120.605 58.7664 120.115C59.303 119.625 59.7697 119.135 60.1664 118.645C60.5864 118.132 60.913 117.607 61.1464 117.07C61.403 116.51 61.5314 115.927 61.5314 115.32C61.5314 114.55 61.3914 113.862 61.1114 113.255C60.8547 112.648 60.5047 112.135 60.0614 111.715C59.6414 111.295 59.1514 110.98 58.5914 110.77C58.0314 110.537 57.4714 110.42 56.9114 110.42C55.7214 110.42 54.6714 110.782 53.7614 111.505C52.8514 112.205 52.1164 113.115 51.5564 114.235H51.2064V111.435ZM74.0863 122.74C74.9263 122.74 75.6613 122.6 76.2913 122.32C76.9213 122.017 77.4346 121.62 77.8313 121.13C78.2513 120.64 78.5546 120.08 78.7413 119.45C78.9513 118.82 79.0563 118.167 79.0563 117.49C79.0563 116.673 78.9279 115.857 78.6713 115.04C78.4379 114.223 78.0763 113.5 77.5863 112.87C77.1196 112.217 76.5363 111.692 75.8363 111.295C75.1596 110.875 74.3779 110.665 73.4913 110.665C72.6979 110.665 71.9979 110.828 71.3913 111.155C70.8079 111.458 70.3063 111.878 69.8863 112.415C69.4896 112.928 69.1863 113.523 68.9763 114.2C68.7896 114.877 68.6963 115.565 68.6963 116.265C68.6963 117.058 68.8129 117.84 69.0463 118.61C69.3029 119.38 69.6529 120.08 70.0963 120.71C70.5629 121.317 71.1229 121.807 71.7763 122.18C72.4529 122.553 73.2229 122.74 74.0863 122.74ZM69.1513 128.515C69.5246 128.982 69.9679 129.355 70.4813 129.635C71.0179 129.915 71.5196 130.008 71.9863 129.915C72.9896 129.915 73.8763 129.682 74.6462 129.215C75.4163 128.748 76.0696 128.13 76.6063 127.36C77.1663 126.59 77.5979 125.762 77.9013 124.875C78.2279 123.965 78.4496 123.125 78.5663 122.355C77.8896 122.962 77.1313 123.382 76.2913 123.615C75.4746 123.848 74.5996 123.965 73.6663 123.965C72.4763 123.965 71.4263 123.767 70.5163 123.37C69.6296 122.95 68.8829 122.413 68.2763 121.76C67.6929 121.083 67.2496 120.313 66.9463 119.45C66.6663 118.587 66.5263 117.7 66.5263 116.79C66.5263 115.88 66.6779 114.982 66.9813 114.095C67.2846 113.208 67.7396 112.427 68.3463 111.75C68.9529 111.05 69.6996 110.49 70.5863 110.07C71.4963 109.65 72.5463 109.44 73.7363 109.44C75.0663 109.44 76.1979 109.685 77.1313 110.175C78.0879 110.665 78.8696 111.33 79.4763 112.17C80.0829 112.987 80.5263 113.943 80.8063 115.04C81.1096 116.137 81.2613 117.28 81.2613 118.47C81.2613 120.01 81.0979 121.562 80.7713 123.125C80.4446 124.665 79.9079 126.053 79.1613 127.29C78.4379 128.503 77.4696 129.495 76.2563 130.265C75.0663 131.035 73.6079 131.42 71.8813 131.42C71.5546 131.42 71.1463 131.385 70.6563 131.315C70.1663 131.245 69.7813 131.187 69.5013 131.14C69.3379 131.117 69.1629 131.093 68.9763 131.07C68.8129 131.047 68.7546 131.035 68.8013 131.035V128.515H69.1513Z" fill="white"/>
<path d="M62 167H74M74 167L70.5 164M74 167L70.5 170" stroke="white"/>
<defs>
<filter id="filter0_b_25_550" x="-13" y="-7" width="161" height="271" filterUnits="userSpaceOnUse" color-interpolation-filters="sRGB">
<feFlood flood-opacity="0" result="BackgroundImageFix"/>
<feGaussianBlur in="BackgroundImageFix" stdDeviation="10"/>
<feComposite in2="SourceAlpha" operator="in" result="effect1_backgroundBlur_25_550"/>
<feBlend mode="normal" in="SourceGraphic" in2="effect1_backgroundBlur_25_550" result="shape"/>
</filter>
</defs>
</svg>
