<svg width="135" height="257" viewBox="0 0 135 257" fill="none" xmlns="http://www.w3.org/2000/svg">
<g filter="url(#filter0_b_25_537)">
<path d="M67.5 244C45.2106 201.486 29.7794 172.243 6.99999 128.5L37.3725 70.75L67.5 13L97.8725 70.75L128 128.5L67.5 244Z" fill="#919191" fill-opacity="0.14"/>
</g>
<path d="M34.3289 64.4832L34.3297 64.4818L67.5018 1.07519L100.944 64.4818L100.944 64.4832L134.435 128.5L67.4998 255.925C60.4084 242.438 53.936 230.146 47.7112 218.323C32.3497 189.148 18.4957 162.835 0.564684 128.501L34.3289 64.4832Z" stroke="#F0D99F"/>
<path d="M53.6123 149.635C53.6123 149.747 53.6263 149.873 53.6543 150.013C53.6823 150.139 53.7243 150.258 53.7803 150.37C53.8503 150.482 53.9273 150.58 54.0113 150.664C54.0953 150.748 54.1933 150.79 54.3053 150.79V151H51.5753V150.79C51.6873 150.79 51.7853 150.755 51.8693 150.685C51.9533 150.601 52.0233 150.503 52.0793 150.391C52.1353 150.265 52.1773 150.139 52.2053 150.013C52.2333 149.873 52.2473 149.747 52.2473 149.635V143.965L48.7403 151.189L45.3803 144.385V149.635C45.3803 149.747 45.3943 149.873 45.4223 150.013C45.4503 150.139 45.4923 150.258 45.5483 150.37C45.6043 150.482 45.6743 150.58 45.7583 150.664C45.8423 150.748 45.9403 150.79 46.0523 150.79V151H44.0153V150.79C44.1273 150.79 44.2253 150.748 44.3093 150.664C44.3933 150.58 44.4563 150.482 44.4983 150.37C44.5543 150.258 44.5963 150.139 44.6243 150.013C44.6523 149.873 44.6663 149.747 44.6663 149.635V143.482C44.6663 143.23 44.6313 142.985 44.5613 142.747C44.5053 142.509 44.3233 142.39 44.0153 142.39V142.18H45.8843L49.0973 148.753L52.3103 142.18H54.3053V142.39C54.0953 142.39 53.9273 142.523 53.8013 142.789C53.6753 143.041 53.6123 143.272 53.6123 143.482V149.635ZM56.6545 151V150.79C56.7665 150.79 56.8645 150.748 56.9485 150.664C57.0325 150.58 57.1025 150.482 57.1585 150.37C57.2145 150.258 57.2565 150.139 57.2845 150.013C57.3125 149.873 57.3265 149.747 57.3265 149.635V143.818C57.3265 143.58 57.2915 143.356 57.2215 143.146C57.1515 142.922 56.9485 142.803 56.6125 142.789V142.6L58.7125 141.928V149.635C58.7125 149.747 58.7265 149.873 58.7545 150.013C58.7825 150.139 58.8245 150.258 58.8805 150.37C58.9365 150.482 59.0065 150.58 59.0905 150.664C59.1745 150.748 59.2725 150.79 59.3845 150.79V151H56.6545ZM56.9065 139.912C56.9065 139.632 56.9975 139.394 57.1795 139.198C57.3755 139.002 57.6135 138.904 57.8935 138.904C58.1735 138.904 58.4115 139.002 58.6075 139.198C58.8035 139.394 58.9015 139.632 58.9015 139.912C58.9015 140.192 58.8035 140.423 58.6075 140.605C58.4115 140.787 58.1735 140.878 57.8935 140.878C57.6135 140.878 57.3755 140.787 57.1795 140.605C56.9975 140.423 56.9065 140.192 56.9065 139.912ZM69.38 150.244C69.268 150.244 69.163 150.272 69.065 150.328C68.967 150.37 68.855 150.426 68.729 150.496C68.491 150.636 68.176 150.783 67.784 150.937C67.392 151.077 66.902 151.147 66.314 151.147C65.6 151.147 64.942 151.035 64.34 150.811C63.752 150.573 63.241 150.251 62.807 149.845C62.373 149.425 62.037 148.942 61.799 148.396C61.561 147.836 61.442 147.234 61.442 146.59C61.442 145.988 61.547 145.414 61.757 144.868C61.981 144.322 62.296 143.839 62.702 143.419C63.108 142.999 63.605 142.663 64.193 142.411C64.795 142.159 65.474 142.033 66.23 142.033C66.748 142.033 67.168 142.096 67.49 142.222C67.812 142.334 68.085 142.446 68.309 142.558C68.435 142.628 68.554 142.684 68.666 142.726C68.792 142.768 68.918 142.789 69.044 142.789V144.385H68.834C68.764 144.119 68.638 143.888 68.456 143.692C68.274 143.482 68.064 143.307 67.826 143.167C67.588 143.027 67.329 142.922 67.049 142.852C66.769 142.782 66.496 142.747 66.23 142.747C65.656 142.747 65.152 142.852 64.718 143.062C64.284 143.258 63.927 143.524 63.647 143.86C63.367 144.182 63.157 144.553 63.017 144.973C62.877 145.393 62.807 145.827 62.807 146.275C62.807 146.793 62.884 147.304 63.038 147.808C63.206 148.298 63.437 148.739 63.731 149.131C64.039 149.523 64.41 149.838 64.844 150.076C65.292 150.314 65.796 150.433 66.356 150.433C66.748 150.433 67.112 150.377 67.448 150.265C67.784 150.153 68.071 150.006 68.309 149.824C68.561 149.642 68.757 149.446 68.897 149.236C69.051 149.012 69.142 148.802 69.17 148.606H69.38V150.244ZM80.3115 150.307V152.848H80.1015C80.1015 152.666 80.0525 152.47 79.9545 152.26C79.8705 152.05 79.7515 151.847 79.5975 151.651C79.4435 151.469 79.2615 151.315 79.0515 151.189C78.8555 151.063 78.6455 151 78.4215 151H70.7985V150.79C70.8965 150.79 70.9805 150.755 71.0505 150.685C71.1345 150.601 71.2045 150.503 71.2605 150.391C71.3165 150.265 71.3585 150.139 71.3865 150.013C71.4145 149.887 71.4285 149.782 71.4285 149.698V143.545C71.4285 143.447 71.4145 143.328 71.3865 143.188C71.3725 143.048 71.3445 142.922 71.3025 142.81C71.2605 142.698 71.1975 142.6 71.1135 142.516C71.0295 142.432 70.9245 142.39 70.7985 142.39V142.18H73.4655V142.39C73.3395 142.39 73.2345 142.432 73.1505 142.516C73.0805 142.586 73.0175 142.684 72.9615 142.81C72.9055 142.922 72.8635 143.048 72.8355 143.188C72.8215 143.314 72.8145 143.433 72.8145 143.545V150.307H77.3925V143.545C77.3925 143.447 77.3785 143.328 77.3505 143.188C77.3365 143.048 77.3015 142.922 77.2455 142.81C77.1895 142.698 77.1195 142.6 77.0355 142.516C76.9655 142.432 76.8675 142.39 76.7415 142.39V142.18H79.4085V142.39C79.2825 142.39 79.1775 142.432 79.0935 142.516C79.0235 142.586 78.9605 142.684 78.9045 142.81C78.8625 142.922 78.8275 143.048 78.7995 143.188C78.7855 143.314 78.7785 143.433 78.7785 143.545V149.152C78.7785 149.432 78.8345 149.698 78.9465 149.95C79.0725 150.188 79.3035 150.307 79.6395 150.307H80.3115ZM85.2401 146.002C85.8841 146.002 86.4441 146.065 86.9201 146.191C87.4101 146.317 87.8091 146.492 88.1171 146.716C88.4391 146.94 88.6771 147.206 88.8311 147.514C88.9851 147.808 89.0621 148.13 89.0621 148.48C89.0621 148.83 88.9851 149.159 88.8311 149.467C88.6771 149.775 88.4321 150.041 88.0961 150.265C87.7741 150.489 87.3681 150.671 86.8781 150.811C86.3881 150.937 85.8071 151 85.1351 151H81.5441V150.79C81.6561 150.79 81.7541 150.755 81.8381 150.685C81.9221 150.601 81.9921 150.503 82.0481 150.391C82.1181 150.265 82.1671 150.139 82.1951 150.013C82.2231 149.873 82.2371 149.747 82.2371 149.635V143.482C82.2371 143.384 82.2231 143.272 82.1951 143.146C82.1671 143.02 82.1181 142.901 82.0481 142.789C81.9921 142.677 81.9221 142.586 81.8381 142.516C81.7541 142.432 81.6561 142.39 81.5441 142.39V142.18H84.2951V142.39C84.0851 142.39 83.9171 142.523 83.7911 142.789C83.6651 143.041 83.6021 143.272 83.6021 143.482V146.002H85.2401ZM85.0931 150.307C86.0171 150.307 86.6821 150.16 87.0881 149.866C87.5081 149.558 87.7181 149.18 87.7181 148.732C87.7181 148.48 87.6621 148.235 87.5501 147.997C87.4381 147.745 87.2631 147.528 87.0251 147.346C86.8011 147.15 86.5211 146.996 86.1851 146.884C85.8491 146.758 85.4641 146.695 85.0301 146.695H83.6021V150.307H85.0931Z" fill="white"/>
<path d="M59.7918 131V130.65C60.1184 130.65 60.3634 130.603 60.5268 130.51C60.7134 130.393 60.8418 130.253 60.9118 130.09C61.0051 129.903 61.0518 129.705 61.0518 129.495C61.0751 129.262 61.0868 129.028 61.0868 128.795V125.365H51.5318L63.3618 108.6V123.615H65.4968V125.365H63.3618V128.795C63.3618 129.262 63.4434 129.693 63.6068 130.09C63.7934 130.463 64.1668 130.65 64.7268 130.65V131H59.7918ZM61.0868 113.815C59.9201 115.472 58.7534 117.105 57.5868 118.715C56.4434 120.325 55.2884 121.958 54.1218 123.615H61.0868V113.815ZM72.459 131H70.814L78.339 111.435H69.204C68.924 111.435 68.6324 111.458 68.329 111.505C68.049 111.528 67.7807 111.61 67.524 111.75C67.2907 111.867 67.0924 112.065 66.929 112.345C66.789 112.602 66.719 112.952 66.719 113.395H66.369V109.475H80.719L72.459 131Z" fill="white"/>
<path d="M62 167H74M74 167L70.5 164M74 167L70.5 170" stroke="white"/>
<defs>
<filter id="filter0_b_25_537" x="-13" y="-7" width="161" height="271" filterUnits="userSpaceOnUse" color-interpolation-filters="sRGB">
<feFlood flood-opacity="0" result="BackgroundImageFix"/>
<feGaussianBlur in="BackgroundImageFix" stdDeviation="10"/>
<feComposite in2="SourceAlpha" operator="in" result="effect1_backgroundBlur_25_537"/>
<feBlend mode="normal" in="SourceGraphic" in2="effect1_backgroundBlur_25_537" result="shape"/>
</filter>
</defs>
</svg>
