<svg width="135" height="257" viewBox="0 0 135 257" fill="none" xmlns="http://www.w3.org/2000/svg">
<g filter="url(#filter0_b_25_511)">
<path d="M67.5 244C45.2106 201.486 29.7794 172.243 6.99999 128.5L37.3725 70.75L67.5 13L97.8725 70.75L128 128.5L67.5 244Z" fill="#919191" fill-opacity="0.14"/>
</g>
<path d="M34.3289 64.4832L34.3297 64.4818L67.5018 1.07519L100.944 64.4818L100.944 64.4832L134.435 128.5L67.4998 255.925C60.4084 242.438 53.936 230.146 47.7112 218.323C32.3497 189.148 18.4957 162.835 0.564684 128.501L34.3289 64.4832Z" stroke="#F0D99F"/>
<path d="M53.6123 149.635C53.6123 149.747 53.6263 149.873 53.6543 150.013C53.6823 150.139 53.7243 150.258 53.7803 150.37C53.8503 150.482 53.9273 150.58 54.0113 150.664C54.0953 150.748 54.1933 150.79 54.3053 150.79V151H51.5753V150.79C51.6873 150.79 51.7853 150.755 51.8693 150.685C51.9533 150.601 52.0233 150.503 52.0793 150.391C52.1353 150.265 52.1773 150.139 52.2053 150.013C52.2333 149.873 52.2473 149.747 52.2473 149.635V143.965L48.7403 151.189L45.3803 144.385V149.635C45.3803 149.747 45.3943 149.873 45.4223 150.013C45.4503 150.139 45.4923 150.258 45.5483 150.37C45.6043 150.482 45.6743 150.58 45.7583 150.664C45.8423 150.748 45.9403 150.79 46.0523 150.79V151H44.0153V150.79C44.1273 150.79 44.2253 150.748 44.3093 150.664C44.3933 150.58 44.4563 150.482 44.4983 150.37C44.5543 150.258 44.5963 150.139 44.6243 150.013C44.6523 149.873 44.6663 149.747 44.6663 149.635V143.482C44.6663 143.23 44.6313 142.985 44.5613 142.747C44.5053 142.509 44.3233 142.39 44.0153 142.39V142.18H45.8843L49.0973 148.753L52.3103 142.18H54.3053V142.39C54.0953 142.39 53.9273 142.523 53.8013 142.789C53.6753 143.041 53.6123 143.272 53.6123 143.482V149.635ZM56.6545 151V150.79C56.7665 150.79 56.8645 150.748 56.9485 150.664C57.0325 150.58 57.1025 150.482 57.1585 150.37C57.2145 150.258 57.2565 150.139 57.2845 150.013C57.3125 149.873 57.3265 149.747 57.3265 149.635V143.818C57.3265 143.58 57.2915 143.356 57.2215 143.146C57.1515 142.922 56.9485 142.803 56.6125 142.789V142.6L58.7125 141.928V149.635C58.7125 149.747 58.7265 149.873 58.7545 150.013C58.7825 150.139 58.8245 150.258 58.8805 150.37C58.9365 150.482 59.0065 150.58 59.0905 150.664C59.1745 150.748 59.2725 150.79 59.3845 150.79V151H56.6545ZM56.9065 139.912C56.9065 139.632 56.9975 139.394 57.1795 139.198C57.3755 139.002 57.6135 138.904 57.8935 138.904C58.1735 138.904 58.4115 139.002 58.6075 139.198C58.8035 139.394 58.9015 139.632 58.9015 139.912C58.9015 140.192 58.8035 140.423 58.6075 140.605C58.4115 140.787 58.1735 140.878 57.8935 140.878C57.6135 140.878 57.3755 140.787 57.1795 140.605C56.9975 140.423 56.9065 140.192 56.9065 139.912ZM69.38 150.244C69.268 150.244 69.163 150.272 69.065 150.328C68.967 150.37 68.855 150.426 68.729 150.496C68.491 150.636 68.176 150.783 67.784 150.937C67.392 151.077 66.902 151.147 66.314 151.147C65.6 151.147 64.942 151.035 64.34 150.811C63.752 150.573 63.241 150.251 62.807 149.845C62.373 149.425 62.037 148.942 61.799 148.396C61.561 147.836 61.442 147.234 61.442 146.59C61.442 145.988 61.547 145.414 61.757 144.868C61.981 144.322 62.296 143.839 62.702 143.419C63.108 142.999 63.605 142.663 64.193 142.411C64.795 142.159 65.474 142.033 66.23 142.033C66.748 142.033 67.168 142.096 67.49 142.222C67.812 142.334 68.085 142.446 68.309 142.558C68.435 142.628 68.554 142.684 68.666 142.726C68.792 142.768 68.918 142.789 69.044 142.789V144.385H68.834C68.764 144.119 68.638 143.888 68.456 143.692C68.274 143.482 68.064 143.307 67.826 143.167C67.588 143.027 67.329 142.922 67.049 142.852C66.769 142.782 66.496 142.747 66.23 142.747C65.656 142.747 65.152 142.852 64.718 143.062C64.284 143.258 63.927 143.524 63.647 143.86C63.367 144.182 63.157 144.553 63.017 144.973C62.877 145.393 62.807 145.827 62.807 146.275C62.807 146.793 62.884 147.304 63.038 147.808C63.206 148.298 63.437 148.739 63.731 149.131C64.039 149.523 64.41 149.838 64.844 150.076C65.292 150.314 65.796 150.433 66.356 150.433C66.748 150.433 67.112 150.377 67.448 150.265C67.784 150.153 68.071 150.006 68.309 149.824C68.561 149.642 68.757 149.446 68.897 149.236C69.051 149.012 69.142 148.802 69.17 148.606H69.38V150.244ZM80.3115 150.307V152.848H80.1015C80.1015 152.666 80.0525 152.47 79.9545 152.26C79.8705 152.05 79.7515 151.847 79.5975 151.651C79.4435 151.469 79.2615 151.315 79.0515 151.189C78.8555 151.063 78.6455 151 78.4215 151H70.7985V150.79C70.8965 150.79 70.9805 150.755 71.0505 150.685C71.1345 150.601 71.2045 150.503 71.2605 150.391C71.3165 150.265 71.3585 150.139 71.3865 150.013C71.4145 149.887 71.4285 149.782 71.4285 149.698V143.545C71.4285 143.447 71.4145 143.328 71.3865 143.188C71.3725 143.048 71.3445 142.922 71.3025 142.81C71.2605 142.698 71.1975 142.6 71.1135 142.516C71.0295 142.432 70.9245 142.39 70.7985 142.39V142.18H73.4655V142.39C73.3395 142.39 73.2345 142.432 73.1505 142.516C73.0805 142.586 73.0175 142.684 72.9615 142.81C72.9055 142.922 72.8635 143.048 72.8355 143.188C72.8215 143.314 72.8145 143.433 72.8145 143.545V150.307H77.3925V143.545C77.3925 143.447 77.3785 143.328 77.3505 143.188C77.3365 143.048 77.3015 142.922 77.2455 142.81C77.1895 142.698 77.1195 142.6 77.0355 142.516C76.9655 142.432 76.8675 142.39 76.7415 142.39V142.18H79.4085V142.39C79.2825 142.39 79.1775 142.432 79.0935 142.516C79.0235 142.586 78.9605 142.684 78.9045 142.81C78.8625 142.922 78.8275 143.048 78.7995 143.188C78.7855 143.314 78.7785 143.433 78.7785 143.545V149.152C78.7785 149.432 78.8345 149.698 78.9465 149.95C79.0725 150.188 79.3035 150.307 79.6395 150.307H80.3115ZM85.2401 146.002C85.8841 146.002 86.4441 146.065 86.9201 146.191C87.4101 146.317 87.8091 146.492 88.1171 146.716C88.4391 146.94 88.6771 147.206 88.8311 147.514C88.9851 147.808 89.0621 148.13 89.0621 148.48C89.0621 148.83 88.9851 149.159 88.8311 149.467C88.6771 149.775 88.4321 150.041 88.0961 150.265C87.7741 150.489 87.3681 150.671 86.8781 150.811C86.3881 150.937 85.8071 151 85.1351 151H81.5441V150.79C81.6561 150.79 81.7541 150.755 81.8381 150.685C81.9221 150.601 81.9921 150.503 82.0481 150.391C82.1181 150.265 82.1671 150.139 82.1951 150.013C82.2231 149.873 82.2371 149.747 82.2371 149.635V143.482C82.2371 143.384 82.2231 143.272 82.1951 143.146C82.1671 143.02 82.1181 142.901 82.0481 142.789C81.9921 142.677 81.9221 142.586 81.8381 142.516C81.7541 142.432 81.6561 142.39 81.5441 142.39V142.18H84.2951V142.39C84.0851 142.39 83.9171 142.523 83.7911 142.789C83.6651 143.041 83.6021 143.272 83.6021 143.482V146.002H85.2401ZM85.0931 150.307C86.0171 150.307 86.6821 150.16 87.0881 149.866C87.5081 149.558 87.7181 149.18 87.7181 148.732C87.7181 148.48 87.6621 148.235 87.5501 147.997C87.4381 147.745 87.2631 147.528 87.0251 147.346C86.8011 147.15 86.5211 146.996 86.1851 146.884C85.8491 146.758 85.4641 146.695 85.0301 146.695H83.6021V150.307H85.0931Z" fill="white"/>
<path d="M47.0516 131V130.65C47.6116 130.65 47.9616 130.487 48.1016 130.16C48.265 129.81 48.3466 129.402 48.3466 128.935V112.17C48.3466 111.937 48.23 111.82 47.9966 111.82C47.9033 111.82 47.775 111.855 47.6116 111.925L43.6216 113.185V111.925L51.7766 109.09V110.035C51.4033 110.198 51.1 110.455 50.8666 110.805C50.6566 111.155 50.575 111.563 50.6216 112.03V128.795C50.6216 129.285 50.7033 129.717 50.8666 130.09C51.03 130.463 51.4033 130.65 51.9866 130.65V131H47.0516ZM63.0885 118.05C62.2485 118.05 61.5135 118.202 60.8835 118.505C60.2768 118.785 59.7635 119.17 59.3435 119.66C58.9468 120.15 58.6435 120.71 58.4335 121.34C58.2468 121.97 58.1535 122.623 58.1535 123.3C58.1535 124.117 58.2701 124.933 58.5035 125.75C58.7601 126.567 59.1218 127.302 59.5885 127.955C60.0785 128.585 60.6618 129.11 61.3385 129.53C62.0151 129.927 62.7968 130.125 63.6835 130.125C64.4768 130.125 65.1768 129.973 65.7835 129.67C66.3901 129.343 66.8918 128.923 67.2885 128.41C67.7085 127.873 68.0118 127.267 68.1985 126.59C68.4085 125.913 68.5135 125.225 68.5135 124.525C68.5135 123.732 68.3851 122.95 68.1285 122.18C67.8951 121.41 67.5451 120.722 67.0785 120.115C66.6351 119.485 66.0751 118.983 65.3985 118.61C64.7218 118.237 63.9518 118.05 63.0885 118.05ZM68.0585 112.275C67.6851 111.808 67.2301 111.435 66.6935 111.155C66.1801 110.875 65.6901 110.735 65.2235 110.735C64.1501 110.735 63.2168 111.003 62.4235 111.54C61.6301 112.053 60.9651 112.695 60.4285 113.465C59.9151 114.235 59.5068 115.075 59.2035 115.985C58.9001 116.872 58.7018 117.7 58.6085 118.47C59.2851 117.863 60.0435 117.443 60.8835 117.21C61.7235 116.953 62.5985 116.825 63.5085 116.825C64.6985 116.825 65.7368 117.035 66.6235 117.455C67.5335 117.852 68.2801 118.388 68.8635 119.065C69.4701 119.718 69.9135 120.477 70.1935 121.34C70.4968 122.203 70.6485 123.09 70.6485 124C70.6485 124.91 70.4968 125.808 70.1935 126.695C69.8901 127.582 69.4351 128.375 68.8285 129.075C68.2218 129.752 67.4635 130.3 66.5535 130.72C65.6668 131.14 64.6285 131.35 63.4385 131.35C62.1318 131.35 61.0001 131.105 60.0435 130.615C59.0868 130.125 58.3051 129.472 57.6985 128.655C57.0918 127.815 56.6368 126.847 56.3335 125.75C56.0535 124.653 55.9135 123.51 55.9135 122.32C55.9135 120.78 56.1235 119.252 56.5435 117.735C56.9868 116.195 57.6285 114.818 58.4685 113.605C59.3085 112.368 60.3351 111.365 61.5485 110.595C62.7618 109.825 64.1501 109.44 65.7135 109.44C66.0401 109.44 66.3785 109.463 66.7285 109.51C67.1018 109.557 67.4285 109.603 67.7085 109.65C67.8485 109.673 67.9885 109.697 68.1285 109.72C68.2918 109.743 68.3851 109.755 68.4085 109.755V112.275H68.0585ZM87.9458 125.295C87.9458 126.322 87.7358 127.22 87.3158 127.99C86.9192 128.737 86.3708 129.367 85.6708 129.88C84.9942 130.37 84.2008 130.743 83.2908 131C82.3808 131.233 81.4125 131.35 80.3858 131.35C79.4292 131.35 78.4958 131.233 77.5858 131C76.6758 130.743 75.8592 130.37 75.1358 129.88C74.4125 129.367 73.8292 128.737 73.3858 127.99C72.9658 127.243 72.7558 126.368 72.7558 125.365C72.7558 124.035 73.1525 122.845 73.9458 121.795C74.7392 120.722 75.9992 119.928 77.7258 119.415C76.3958 118.808 75.4158 118.108 74.7858 117.315C74.1792 116.498 73.8758 115.507 73.8758 114.34C73.8758 113.477 74.0508 112.73 74.4008 112.1C74.7742 111.447 75.2525 110.898 75.8358 110.455C76.4425 110.012 77.1308 109.685 77.9008 109.475C78.6708 109.242 79.4525 109.125 80.2458 109.125C81.0392 109.125 81.8208 109.242 82.5908 109.475C83.3842 109.685 84.0842 110.012 84.6908 110.455C85.2975 110.898 85.7875 111.458 86.1608 112.135C86.5575 112.788 86.7558 113.558 86.7558 114.445C86.7558 115.495 86.4058 116.475 85.7058 117.385C85.0058 118.295 84.0958 118.983 82.9758 119.45C84.4225 119.87 85.6125 120.57 86.5458 121.55C87.4792 122.507 87.9458 123.755 87.9458 125.295ZM84.7258 114.97C84.7258 114.27 84.5742 113.628 84.2708 113.045C83.9908 112.462 83.6175 111.972 83.1508 111.575C82.6842 111.155 82.1475 110.84 81.5408 110.63C80.9575 110.397 80.3625 110.28 79.7558 110.28C79.2892 110.28 78.8342 110.35 78.3908 110.49C77.9475 110.63 77.5508 110.84 77.2008 111.12C76.8508 111.4 76.5592 111.75 76.3258 112.17C76.1158 112.59 76.0108 113.08 76.0108 113.64C76.0108 114.27 76.1625 114.853 76.4658 115.39C76.7692 115.927 77.1658 116.405 77.6558 116.825C78.1692 117.245 78.7408 117.618 79.3708 117.945C80.0242 118.248 80.6775 118.505 81.3308 118.715C82.3808 118.295 83.2092 117.77 83.8158 117.14C84.4225 116.51 84.7258 115.787 84.7258 114.97ZM86.1958 126.03C86.1958 125.377 86.0208 124.758 85.6708 124.175C85.3208 123.592 84.8308 123.067 84.2008 122.6C83.5708 122.11 82.8358 121.678 81.9958 121.305C81.1792 120.908 80.3158 120.57 79.4058 120.29C78.7992 120.5 78.2275 120.757 77.6908 121.06C77.1542 121.363 76.6875 121.713 76.2908 122.11C75.8942 122.507 75.5792 122.938 75.3458 123.405C75.1125 123.872 74.9958 124.373 74.9958 124.91C74.9958 125.61 75.1592 126.275 75.4858 126.905C75.8125 127.535 76.2442 128.095 76.7808 128.585C77.3175 129.052 77.9358 129.413 78.6358 129.67C79.3358 129.927 80.0592 130.055 80.8058 130.055C81.4358 130.055 82.0658 129.962 82.6958 129.775C83.3492 129.565 83.9208 129.297 84.4108 128.97C84.9242 128.62 85.3442 128.2 85.6708 127.71C86.0208 127.22 86.1958 126.66 86.1958 126.03Z" fill="white"/>
<path d="M62 167H74M74 167L70.5 164M74 167L70.5 170" stroke="white"/>
<defs>
<filter id="filter0_b_25_511" x="-13" y="-7" width="161" height="271" filterUnits="userSpaceOnUse" color-interpolation-filters="sRGB">
<feFlood flood-opacity="0" result="BackgroundImageFix"/>
<feGaussianBlur in="BackgroundImageFix" stdDeviation="10"/>
<feComposite in2="SourceAlpha" operator="in" result="effect1_backgroundBlur_25_511"/>
<feBlend mode="normal" in="SourceGraphic" in2="effect1_backgroundBlur_25_511" result="shape"/>
</filter>
</defs>
</svg>
