<svg width="135" height="257" viewBox="0 0 135 257" fill="none" xmlns="http://www.w3.org/2000/svg">
<g filter="url(#filter0_b_25_564)">
<path d="M67.5 244C45.2106 201.486 29.7794 172.243 6.99999 128.5L37.3725 70.75L67.5 13L97.8725 70.75L128 128.5L67.5 244Z" fill="#919191" fill-opacity="0.14"/>
</g>
<path d="M34.3289 64.4832L34.3297 64.4818L67.5018 1.07519L100.944 64.4818L100.944 64.4832L134.435 128.5L67.4998 255.925C60.4084 242.438 53.936 230.146 47.7112 218.323C32.3497 189.148 18.4957 162.835 0.564684 128.501L34.3289 64.4832Z" stroke="#F0D99F"/>
<path d="M53.2928 150.79H53.3978C53.4958 150.79 53.5868 150.748 53.6708 150.664C53.7548 150.58 53.8248 150.482 53.8808 150.37C53.9508 150.258 53.9998 150.139 54.0278 150.013C54.0558 149.873 54.0698 149.747 54.0698 149.635V138.589L48.6518 151.231L43.5068 139.24V149.635C43.5068 149.747 43.5208 149.873 43.5488 150.013C43.5768 150.139 43.6188 150.258 43.6748 150.37C43.7448 150.482 43.8218 150.58 43.9058 150.664C43.9898 150.748 44.0878 150.79 44.1998 150.79H44.3048V151H42.0158V150.79H42.1208C42.2188 150.79 42.3098 150.748 42.3938 150.664C42.4778 150.58 42.5478 150.482 42.6038 150.37C42.6598 150.258 42.7018 150.139 42.7298 150.013C42.7578 149.873 42.7718 149.747 42.7718 149.635V138.442C42.7718 138.344 42.7578 138.232 42.7298 138.106C42.7018 137.98 42.6598 137.861 42.6038 137.749C42.5478 137.637 42.4778 137.546 42.3938 137.476C42.3098 137.392 42.2188 137.35 42.1208 137.35H42.0158V137.14H44.1578L49.0298 148.627L53.9018 137.14H56.2748V137.35H56.1698C56.0578 137.35 55.9598 137.392 55.8758 137.476C55.7918 137.546 55.7148 137.637 55.6448 137.749C55.5888 137.861 55.5468 137.98 55.5188 138.106C55.4908 138.232 55.4768 138.344 55.4768 138.442V149.635C55.4768 149.747 55.4908 149.873 55.5188 150.013C55.5468 150.139 55.5888 150.258 55.6448 150.37C55.7148 150.482 55.7918 150.58 55.8758 150.664C55.9598 150.748 56.0578 150.79 56.1698 150.79H56.2748V151H53.2928V150.79ZM58.613 151V150.79C58.725 150.79 58.823 150.748 58.907 150.664C58.991 150.58 59.061 150.482 59.117 150.37C59.173 150.258 59.215 150.139 59.243 150.013C59.271 149.873 59.285 149.747 59.285 149.635V143.818C59.285 143.58 59.25 143.356 59.18 143.146C59.11 142.922 58.907 142.803 58.571 142.789V142.6L60.671 141.928V149.635C60.671 149.747 60.685 149.873 60.713 150.013C60.741 150.139 60.783 150.258 60.839 150.37C60.895 150.482 60.965 150.58 61.049 150.664C61.133 150.748 61.231 150.79 61.343 150.79V151H58.613ZM58.865 139.912C58.865 139.632 58.956 139.394 59.138 139.198C59.334 139.002 59.572 138.904 59.852 138.904C60.132 138.904 60.37 139.002 60.566 139.198C60.762 139.394 60.86 139.632 60.86 139.912C60.86 140.192 60.762 140.423 60.566 140.605C60.37 140.787 60.132 140.878 59.852 140.878C59.572 140.878 59.334 140.787 59.138 140.605C58.956 140.423 58.865 140.192 58.865 139.912ZM71.3385 150.244C71.2265 150.244 71.1215 150.272 71.0235 150.328C70.9255 150.37 70.8135 150.426 70.6875 150.496C70.4495 150.636 70.1345 150.783 69.7425 150.937C69.3505 151.077 68.8605 151.147 68.2725 151.147C67.5585 151.147 66.9005 151.035 66.2985 150.811C65.7105 150.573 65.1995 150.251 64.7655 149.845C64.3315 149.425 63.9955 148.942 63.7575 148.396C63.5195 147.836 63.4005 147.234 63.4005 146.59C63.4005 145.988 63.5055 145.414 63.7155 144.868C63.9395 144.322 64.2545 143.839 64.6605 143.419C65.0665 142.999 65.5635 142.663 66.1515 142.411C66.7535 142.159 67.4325 142.033 68.1885 142.033C68.7065 142.033 69.1265 142.096 69.4485 142.222C69.7705 142.334 70.0435 142.446 70.2675 142.558C70.3935 142.628 70.5125 142.684 70.6245 142.726C70.7505 142.768 70.8765 142.789 71.0025 142.789V144.385H70.7925C70.7225 144.119 70.5965 143.888 70.4145 143.692C70.2325 143.482 70.0225 143.307 69.7845 143.167C69.5465 143.027 69.2875 142.922 69.0075 142.852C68.7275 142.782 68.4545 142.747 68.1885 142.747C67.6145 142.747 67.1105 142.852 66.6765 143.062C66.2425 143.258 65.8855 143.524 65.6055 143.86C65.3255 144.182 65.1155 144.553 64.9755 144.973C64.8355 145.393 64.7655 145.827 64.7655 146.275C64.7655 146.793 64.8425 147.304 64.9965 147.808C65.1645 148.298 65.3955 148.739 65.6895 149.131C65.9975 149.523 66.3685 149.838 66.8025 150.076C67.2505 150.314 67.7545 150.433 68.3145 150.433C68.7065 150.433 69.0705 150.377 69.4065 150.265C69.7425 150.153 70.0295 150.006 70.2675 149.824C70.5195 149.642 70.7155 149.446 70.8555 149.236C71.0095 149.012 71.1005 148.802 71.1285 148.606H71.3385V150.244ZM82.27 150.307V152.848H82.06C82.06 152.666 82.011 152.47 81.913 152.26C81.829 152.05 81.71 151.847 81.556 151.651C81.402 151.469 81.22 151.315 81.01 151.189C80.814 151.063 80.604 151 80.38 151H72.757V150.79C72.855 150.79 72.939 150.755 73.009 150.685C73.093 150.601 73.163 150.503 73.219 150.391C73.275 150.265 73.317 150.139 73.345 150.013C73.373 149.887 73.387 149.782 73.387 149.698V143.545C73.387 143.447 73.373 143.328 73.345 143.188C73.331 143.048 73.303 142.922 73.261 142.81C73.219 142.698 73.156 142.6 73.072 142.516C72.988 142.432 72.883 142.39 72.757 142.39V142.18H75.424V142.39C75.298 142.39 75.193 142.432 75.109 142.516C75.039 142.586 74.976 142.684 74.92 142.81C74.864 142.922 74.822 143.048 74.794 143.188C74.78 143.314 74.773 143.433 74.773 143.545V150.307H79.351V143.545C79.351 143.447 79.337 143.328 79.309 143.188C79.295 143.048 79.26 142.922 79.204 142.81C79.148 142.698 79.078 142.6 78.994 142.516C78.924 142.432 78.826 142.39 78.7 142.39V142.18H81.367V142.39C81.241 142.39 81.136 142.432 81.052 142.516C80.982 142.586 80.919 142.684 80.863 142.81C80.821 142.922 80.786 143.048 80.758 143.188C80.744 143.314 80.737 143.433 80.737 143.545V149.152C80.737 149.432 80.793 149.698 80.905 149.95C81.031 150.188 81.262 150.307 81.598 150.307H82.27ZM90.2016 149.635C90.2016 149.747 90.2156 149.873 90.2436 150.013C90.2716 150.139 90.3136 150.265 90.3696 150.391C90.4396 150.503 90.5096 150.601 90.5796 150.685C90.6636 150.755 90.7616 150.79 90.8736 150.79V151H88.1436V150.79C88.2416 150.79 88.3326 150.748 88.4166 150.664C88.5006 150.58 88.5706 150.482 88.6266 150.37C88.6966 150.258 88.7456 150.139 88.7736 150.013C88.8016 149.873 88.8156 149.747 88.8156 149.635V146.695C88.6616 146.723 88.4866 146.807 88.2906 146.947C88.0946 147.073 87.8916 147.241 87.6816 147.451C87.4716 147.647 87.2686 147.864 87.0726 148.102C86.8766 148.34 86.6946 148.578 86.5266 148.816C86.3866 149.012 86.2676 149.173 86.1696 149.299C86.0716 149.425 85.9876 149.544 85.9176 149.656C85.7776 149.838 85.6376 150.013 85.4976 150.181C85.3576 150.335 85.1966 150.475 85.0146 150.601C84.8466 150.727 84.6436 150.825 84.4056 150.895C84.1676 150.965 83.8876 151 83.5656 151H82.7886V150.79C82.9566 150.79 83.1246 150.741 83.2926 150.643C83.4746 150.545 83.6496 150.426 83.8176 150.286C83.9856 150.132 84.1396 149.971 84.2796 149.803C84.4336 149.621 84.5666 149.453 84.6786 149.299L85.3296 148.396C85.5676 148.074 85.8126 147.759 86.0646 147.451C86.3166 147.129 86.6036 146.877 86.9256 146.695C86.4216 146.681 85.9736 146.611 85.5816 146.485C85.1896 146.359 84.8606 146.191 84.5946 145.981C84.3286 145.771 84.1256 145.533 83.9856 145.267C83.8596 144.987 83.7966 144.693 83.7966 144.385C83.7966 144.091 83.8596 143.811 83.9856 143.545C84.1256 143.279 84.3426 143.048 84.6366 142.852C84.9306 142.642 85.3016 142.481 85.7496 142.369C86.2116 142.243 86.7646 142.18 87.4086 142.18H90.8736V142.39C90.7616 142.39 90.6636 142.432 90.5796 142.516C90.5096 142.586 90.4396 142.677 90.3696 142.789C90.3136 142.901 90.2716 143.02 90.2436 143.146C90.2156 143.272 90.2016 143.384 90.2016 143.482V149.635ZM85.1616 144.259C85.1616 144.469 85.2246 144.679 85.3506 144.889C85.4906 145.099 85.6726 145.288 85.8966 145.456C86.1346 145.624 86.4006 145.764 86.6946 145.876C86.9886 145.974 87.3036 146.023 87.6396 146.023H88.8156V142.852H87.4506C86.6106 142.852 86.0156 142.985 85.6656 143.251C85.3296 143.517 85.1616 143.853 85.1616 144.259Z" fill="white"/>
<path d="M52.1973 110.14H52.5123C52.699 110.14 52.8973 110.105 53.1073 110.035C53.3173 109.965 53.5506 109.883 53.8073 109.79C54.204 109.65 54.6823 109.51 55.2423 109.37C55.8023 109.207 56.4906 109.125 57.3073 109.125C58.2406 109.125 59.069 109.265 59.7923 109.545C60.539 109.802 61.1573 110.163 61.6473 110.63C62.1606 111.073 62.5456 111.598 62.8023 112.205C63.0823 112.812 63.2223 113.442 63.2223 114.095C63.2223 115.005 62.9423 115.88 62.3823 116.72C61.8456 117.56 61.0056 118.237 59.8623 118.75C61.4723 119.217 62.674 119.963 63.4673 120.99C64.2606 122.017 64.6573 123.183 64.6573 124.49C64.6573 125.47 64.4706 126.38 64.0973 127.22C63.7473 128.037 63.2223 128.76 62.5223 129.39C61.8456 129.997 61.029 130.475 60.0723 130.825C59.1156 131.175 58.0423 131.35 56.8523 131.35C55.9656 131.35 55.2306 131.268 54.6473 131.105C54.064 130.942 53.574 130.79 53.1773 130.65C52.9206 130.557 52.6873 130.487 52.4773 130.44C52.2673 130.37 52.0573 130.335 51.8473 130.335H51.5323V127.64H51.8823C52.489 128.48 53.2356 129.122 54.1223 129.565C55.0323 129.985 55.9656 130.195 56.9223 130.195C57.7623 130.195 58.5206 130.055 59.1973 129.775C59.874 129.472 60.4456 129.075 60.9123 128.585C61.4023 128.095 61.764 127.535 61.9973 126.905C62.254 126.275 62.3823 125.622 62.3823 124.945C62.3823 124.245 62.2423 123.568 61.9623 122.915C61.6823 122.238 61.2856 121.643 60.7723 121.13C60.259 120.617 59.629 120.208 58.8823 119.905C58.159 119.602 57.3306 119.45 56.3973 119.45H54.7873V118.295H56.5723C57.2956 118.295 57.9256 118.178 58.4623 117.945C59.0223 117.712 59.489 117.397 59.8623 117C60.2356 116.603 60.5156 116.16 60.7023 115.67C60.889 115.18 60.9823 114.667 60.9823 114.13C60.9823 113.64 60.889 113.162 60.7023 112.695C60.539 112.228 60.2823 111.82 59.9323 111.47C59.5823 111.097 59.1506 110.793 58.6373 110.56C58.1473 110.327 57.5756 110.21 56.9223 110.21C56.129 110.21 55.3356 110.432 54.5423 110.875C53.749 111.318 53.084 111.983 52.5473 112.87H52.1973V110.14ZM74.4504 131V130.65C74.7771 130.65 75.0221 130.603 75.1854 130.51C75.3721 130.393 75.5004 130.253 75.5705 130.09C75.6638 129.903 75.7104 129.705 75.7104 129.495C75.7338 129.262 75.7455 129.028 75.7455 128.795V125.365H66.1904L78.0204 108.6V123.615H80.1554V125.365H78.0204V128.795C78.0204 129.262 78.1021 129.693 78.2654 130.09C78.4521 130.463 78.8254 130.65 79.3855 130.65V131H74.4504ZM75.7455 113.815C74.5788 115.472 73.4121 117.105 72.2454 118.715C71.1021 120.325 69.9471 121.958 68.7804 123.615H75.7455V113.815Z" fill="white"/>
<path d="M62 167H74M74 167L70.5 164M74 167L70.5 170" stroke="white"/>
<defs>
<filter id="filter0_b_25_564" x="-13" y="-7" width="161" height="271" filterUnits="userSpaceOnUse" color-interpolation-filters="sRGB">
<feFlood flood-opacity="0" result="BackgroundImageFix"/>
<feGaussianBlur in="BackgroundImageFix" stdDeviation="10"/>
<feComposite in2="SourceAlpha" operator="in" result="effect1_backgroundBlur_25_564"/>
<feBlend mode="normal" in="SourceGraphic" in2="effect1_backgroundBlur_25_564" result="shape"/>
</filter>
</defs>
</svg>
