<svg width="36" height="16" viewBox="0 0 36 16" fill="none" xmlns="http://www.w3.org/2000/svg">
<path d="M17.9214 15.7568L16.1641 12.4263L14.4634 9.09582C15.6822 6.75737 16.7593 4.73072 17.964 2.4348L21.4645 9.09582L19.6646 12.4263L17.9214 15.7568Z" fill="#E7D1D1"/>
<path d="M35.5655 4.40511L35.3954 4.50432L35.2253 4.6177L35.0411 4.7169L34.871 4.83028L34.6868 4.92949L34.5167 5.0287L34.3466 5.1279L34.1624 5.22711L33.9782 5.32632L33.8081 5.41135L33.6238 5.51056L33.4396 5.60976L33.2695 5.70897L33.0853 5.79401L32.9011 5.89321L32.7168 5.97825L32.5326 6.06328L32.3483 6.14831L32.1641 6.24752L32.0649 6.29004L30.4351 2.73277L30.5059 2.70443L30.676 2.63356L30.8319 2.54853L31.002 2.4635L31.1579 2.39263L31.3137 2.3076L31.4838 2.22256L31.6397 2.13753L31.7956 2.06667L31.9515 1.98163L32.1216 1.88243L32.2775 1.79739L32.4334 1.71236L32.5893 1.62732L32.7452 1.54229L32.9011 1.44308L33.057 1.35805L33.2128 1.27301L33.3687 1.17381L33.5246 1.0746L33.6664 0.989567L35.7072 4.32008L35.5655 4.40511Z" fill="#E7D1D1"/>
<path d="M27.9418 7.87712L27.7434 7.93381L27.545 7.9905L27.3466 8.06136L27.1482 8.11805L26.9498 8.16057L26.7372 8.21726L26.5388 8.27395L26.3404 8.33064L26.1419 8.37316L25.9294 8.42985L25.7309 8.48654L25.5325 8.52905L25.3199 8.57157L25.1215 8.61409L24.909 8.67078L24.7105 8.71329L24.4979 8.74164L24.2995 8.78416L24.1862 8.8125L23.4775 4.97178L23.5626 4.95761L23.7468 4.91509L23.9311 4.88675L24.1011 4.84423L24.2854 4.80172L24.4696 4.7592L24.6538 4.71668L24.8239 4.67416L25.0082 4.64582L25.1924 4.58913L25.3625 4.54661L25.5467 4.5041L25.7309 4.44741L25.901 4.40489L26.0711 4.36237L26.2553 4.30568L26.4254 4.24899L26.6096 4.20648L26.7797 4.14979L26.9639 4.0931L27.0348 4.06475L28.2111 7.79209L28.1403 7.80626L27.9418 7.87712Z" fill="#E7D1D1"/>
<path d="M11.7563 8.82665L11.5437 8.78413L11.3312 8.74161L11.1327 8.71327L10.9202 8.67075L10.7217 8.61406L10.5092 8.57154L10.3107 8.52903L10.0982 8.48651L9.89975 8.42982L9.70133 8.37313L9.50292 8.33062L9.29033 8.27392L9.09192 8.21724L8.89351 8.16055L8.69509 8.11803L8.49668 8.06134L8.29827 7.99048L8.08568 7.93379L7.90144 7.8771L7.81641 7.84875L8.99271 4.12142L9.0494 4.14976L9.23364 4.20645L9.40371 4.24897L9.57378 4.30566L9.75802 4.36235L9.94226 4.40486L10.1123 4.44738L10.2966 4.50407L10.4666 4.54659L10.6509 4.58911L10.821 4.64579L11.0052 4.67414L11.1894 4.71666L11.3737 4.75917L11.5437 4.80169L11.728 4.84421L11.9122 4.88673L12.0965 4.91507L12.2807 4.95759L12.4508 4.98593L12.55 5.0001L11.8414 8.84082L11.7563 8.82665Z" fill="#E7D1D1"/>
<path d="M3.86246 6.33201L3.67822 6.24697L3.49397 6.14777L3.30973 6.06273L3.12549 5.9777L2.94125 5.89266L2.75701 5.79346L2.57277 5.70842L2.38853 5.60922L2.21846 5.51001L2.03422 5.4108L1.84998 5.32577L1.67991 5.22656L1.49567 5.12735L1.3256 5.02815L1.14136 4.92894L0.97129 4.82973L0.787049 4.71636L0.61698 4.61715L0.446912 4.50377L0.291016 4.41874L2.34601 1.08822L2.47356 1.17326L2.62946 1.27247L2.77118 1.3575L2.92708 1.44253L3.08297 1.54174L3.23887 1.62678L3.40894 1.71181L3.56484 1.79684L3.72073 1.88188L3.87663 1.98109L4.03252 2.06612L4.18842 2.13698L4.35849 2.22202L4.51439 2.30705L4.67028 2.39208L4.84035 2.46295L4.99625 2.54798L5.16632 2.63301L5.32221 2.70388L5.49228 2.77474L5.57731 2.81726L3.94749 6.36035L3.86246 6.33201Z" fill="#E7D1D1"/>
</svg>
