<svg width="16" height="15" viewBox="0 0 16 15" fill="none" xmlns="http://www.w3.org/2000/svg">
<path d="M4.78585 8.68098C5.22637 8.68098 5.58349 8.3285 5.58349 7.89369C5.58349 7.45889 5.22637 7.10641 4.78585 7.10641C4.34532 7.10641 3.98821 7.45889 3.98821 7.89369C3.98821 8.3285 4.34532 8.68098 4.78585 8.68098Z" fill="#79655E"/>
<path d="M8.77405 7.89369C8.77405 8.3285 8.41694 8.68098 7.97641 8.68098C7.53589 8.68098 7.17877 8.3285 7.17877 7.89369C7.17877 7.45889 7.53589 7.10641 7.97641 7.10641C8.41694 7.10641 8.77405 7.45889 8.77405 7.89369Z" fill="#79655E"/>
<path d="M11.167 8.68098C11.6075 8.68098 11.9646 8.3285 11.9646 7.89369C11.9646 7.45889 11.6075 7.10641 11.167 7.10641C10.7264 7.10641 10.3693 7.45889 10.3693 7.89369C10.3693 8.3285 10.7264 8.68098 11.167 8.68098Z" fill="#79655E"/>
<path d="M5.58349 11.0428C5.58349 11.4776 5.22637 11.8301 4.78585 11.8301C4.34532 11.8301 3.98821 11.4776 3.98821 11.0428C3.98821 10.608 4.34532 10.2555 4.78585 10.2555C5.22637 10.2555 5.58349 10.608 5.58349 11.0428Z" fill="#79655E"/>
<path d="M7.97641 11.8301C8.41694 11.8301 8.77405 11.4776 8.77405 11.0428C8.77405 10.608 8.41694 10.2555 7.97641 10.2555C7.53589 10.2555 7.17877 10.608 7.17877 11.0428C7.17877 11.4776 7.53589 11.8301 7.97641 11.8301Z" fill="#79655E"/>
<path fill-rule="evenodd" clip-rule="evenodd" d="M4.78585 0.808156C4.78585 0.373352 4.42873 0.020874 3.98821 0.020874C3.54768 0.020874 3.19056 0.373352 3.19056 0.808156H1.59528C0.714232 0.808156 0 1.51311 0 2.38272V13.4047C0 14.2743 0.714233 14.9792 1.59528 14.9792H14.3575C15.2386 14.9792 15.9528 14.2743 15.9528 13.4047V2.38272C15.9528 1.51311 15.2386 0.808156 14.3575 0.808156H12.7623C12.7623 0.373352 12.4051 0.020874 11.9646 0.020874C11.5241 0.020874 11.167 0.373352 11.167 0.808156H4.78585ZM1.59528 3.95728V2.38272H14.3575V3.95728H1.59528ZM1.59528 5.53185V13.4047H9.70857L14.3575 8.81608V5.53185H1.59528ZM14.3575 11.0428L11.9646 13.4047H14.3575V11.0428Z" fill="#79655E"/>
</svg>
