<svg width="16" height="17" viewBox="0 0 16 17" fill="none" xmlns="http://www.w3.org/2000/svg">
<path d="M8.8 16.5H7.2V14.1H8.8V16.5ZM13.0912 14.7224L11.3944 13.0256L12.5256 11.8944L14.2232 13.592L13.0928 14.7224H13.0912ZM2.9088 14.7224L1.7768 13.5912L3.4728 11.8936L4.6048 13.0248L2.9088 14.7216V14.7224ZM8 12.5056C5.78798 12.5047 3.99541 10.711 3.996 8.49893C3.99659 6.28691 5.79011 4.49411 8.00213 4.4944C10.2142 4.49469 12.0072 6.28798 12.0072 8.5C12.005 10.7119 10.2119 12.5043 8 12.5056ZM8 6.0944C6.67163 6.09528 5.59541 7.1727 5.596 8.50107C5.59659 9.82943 6.67377 10.9059 8.00213 10.9056C9.3305 10.9053 10.4072 9.82837 10.4072 8.5C10.4059 7.17135 9.32865 6.09484 8 6.0944ZM16 9.3H13.6V7.7H16V9.3ZM2.4 9.3H0V7.7H2.4V9.3ZM12.5248 5.1064L11.3944 3.9744L13.0912 2.2768L14.2232 3.4088L12.5256 5.1056L12.5248 5.1064ZM3.4744 5.1064L1.7784 3.4096L2.9104 2.2784L4.6064 3.976L3.4752 5.1056L3.4744 5.1064ZM8.8 2.9H7.2V0.5H8.8V2.9Z" fill="#79655E"/>
</svg>
